<svg width="526" height="77" viewBox="0 0 526 77" fill="none" xmlns="http://www.w3.org/2000/svg">
<g clip-path="url(#clip0_327_19)">
<path d="M50.6338 75.2448C49.461 75.0003 48.5214 74.5398 47.8007 73.8637C47.0801 73.1875 46.522 72.238 46.1264 71.0223C45.7237 69.8067 45.3704 68.2529 45.0526 66.3538L44.5721 62.8651C44.2542 60.6999 43.8303 58.7793 43.2934 57.1032C42.7635 55.4272 41.9369 53.9885 40.8207 52.8017C39.7045 51.6147 38.2279 50.6652 36.3981 49.9602C34.5612 49.2553 32.2086 48.7445 29.3403 48.4208V48.1763C35.2395 47.2556 39.5067 45.5507 42.1347 43.0618C44.7629 40.5729 46.084 37.487 46.084 33.804C46.084 29.5815 44.12 26.2294 40.1848 23.7333C36.2497 21.2444 30.5907 20 23.201 20H0V20.6474C2.02054 20.7049 3.65253 20.8416 4.90301 21.0574C6.15349 21.2732 7.10724 21.6113 7.77133 22.0717C8.43541 22.5321 8.87348 23.1003 9.08541 23.7765C9.29734 24.4527 9.40335 25.2799 9.40335 26.251V70.2526C9.40335 71.2237 9.29734 72.0654 9.08541 72.7704C8.87348 73.4752 8.43541 74.0436 7.77133 74.4751C7.10724 74.9067 6.14642 75.2304 4.90301 75.4462C3.65253 75.662 2.02054 75.7987 0 75.8562V76.59H25.2003V75.8562C23.1797 75.8059 21.5831 75.6693 20.4174 75.4462C19.2447 75.2304 18.3474 74.9067 17.7045 74.4751C17.0686 74.0436 16.6519 73.4897 16.4682 72.8135C16.2845 72.1373 16.1856 71.31 16.1856 70.339V48.9029H23.9993C26.3943 48.9029 28.3583 49.0395 29.8984 49.3056C31.4386 49.579 32.689 50.0897 33.6428 50.8523C34.5966 51.6075 35.303 52.6362 35.7552 53.9382C36.2073 55.2401 36.5677 56.8874 36.8291 58.8944L37.7051 66.2028C37.917 68.0443 38.1926 69.6412 38.5387 70.9936C38.8849 72.3459 39.3865 73.4681 40.0506 74.36C40.7147 75.252 41.6048 75.9138 42.7211 76.3526C43.8374 76.7914 45.2715 77 47.0307 77C48.3588 77 49.7294 76.9424 51.1353 76.8345C52.5413 76.7266 53.9118 76.5397 55.2401 76.2663V75.6189C53.3255 75.6189 51.7853 75.4966 50.6126 75.252L50.6338 75.2448ZM23.7591 47.6799H16.1856V21.2157H22.8053C25.7302 21.2157 28.1887 21.4746 30.181 21.9854C32.1733 22.5033 33.77 23.2874 34.964 24.3376C36.1579 25.395 37.0269 26.7186 37.5568 28.3155C38.0866 29.9124 38.355 31.7683 38.355 33.876C38.355 36.1491 38.1572 38.1559 37.7546 39.8824C37.3518 41.616 36.61 43.0474 35.5221 44.184C34.4341 45.3205 32.9434 46.1837 31.057 46.7808C29.1707 47.3778 26.7405 47.6728 23.7591 47.6728V47.6799Z" fill="#343434"/>
</g>
<g clip-path="url(#clip1_327_19)">
<path d="M76.0471 76.9999H123.86L124.269 59.272L123.537 59.1924C122.402 62.2978 121.332 64.9111 120.334 67.032C119.336 69.1531 118.238 70.8759 117.053 72.1788C115.861 73.4891 114.511 74.4157 113.003 74.9585C111.488 75.5015 109.679 75.7766 107.575 75.7766H92.504V47.9939H100.201C101.659 47.9939 102.915 48.1604 103.971 48.4862C105.026 48.8119 105.931 49.3982 106.685 50.2451C107.439 51.0921 108.106 52.2431 108.667 53.7199C109.234 55.1894 109.787 57.0425 110.325 59.272H111.05V35.5793H110.325C109.787 37.8161 109.234 39.6548 108.667 41.0953C108.099 42.5358 107.439 43.6795 106.685 44.5265C105.931 45.3735 105.026 45.9598 103.971 46.2855C102.915 46.6113 101.659 46.7777 100.201 46.7777H92.504V21.2826H106.197C108.142 21.2826 109.801 21.5432 111.18 22.0571C112.558 22.5783 113.8 23.447 114.906 24.6704C116.012 25.8937 117.039 27.5008 117.986 29.4915C118.934 31.4821 119.947 33.9434 121.023 36.8823L121.756 36.8026L121.512 20.052H76.0471V20.7035C78.1006 20.7614 79.7593 20.8917 81.0301 21.1161C82.301 21.3333 83.2703 21.6735 83.9453 22.1368C84.6202 22.6001 85.0654 23.1719 85.2808 23.8524C85.4962 24.5328 85.6039 25.3653 85.6039 26.3498V70.6949C85.6039 71.6794 85.4962 72.5191 85.2808 73.2285C85.0654 73.9379 84.6202 74.5098 83.9453 74.9441C83.2703 75.3784 82.2938 75.7114 81.0301 75.9286C79.7593 76.1458 78.1006 76.2833 76.0471 76.334V76.9999Z" fill="#343434"/>
<path d="M91.3174 14.4375H92.2861L101.765 6.53261L111.238 14.4375H112.213L102.411 0H101.679L91.3174 14.4375Z" fill="#343434"/>
</g>
<g clip-path="url(#clip2_327_19)">
<path d="M173.755 76.9782H174.896L192.745 31.5271C193.72 29.063 194.608 27.0568 195.395 25.5013C196.182 23.9458 196.998 22.681 197.843 21.7288C198.688 20.7694 199.619 20.0716 200.652 19.6355C201.684 19.1993 202.905 18.8722 204.32 18.6542V18H185.741V18.6542C187.806 18.8722 189.409 19.2139 190.55 19.6791C191.691 20.1443 192.464 20.7985 192.875 21.6489C193.28 22.4993 193.366 23.6187 193.121 25.0143C192.875 26.4098 192.348 28.1471 191.532 30.2259L177.271 67.3908H177.026L162.115 26.0464C161.624 24.7308 161.343 23.626 161.263 22.7247C161.184 21.8233 161.386 21.0819 161.877 20.5077C162.368 19.9335 163.206 19.5119 164.404 19.2357C165.596 18.9595 167.228 18.7705 169.293 18.6615V18.0073H145.089V18.6615C146.721 18.8286 148.035 19.0612 149.039 19.3592C150.042 19.6573 150.887 20.1225 151.566 20.7548C152.245 21.3872 152.859 22.2449 153.4 23.3425C153.942 24.4401 154.541 25.8575 155.191 27.6092L173.769 77L173.755 76.9782Z" fill="#343434"/>
</g>
<g clip-path="url(#clip3_327_19)">
<path d="M225.276 77H274.065L274.475 58.9446L273.728 58.8635C272.57 62.0263 271.478 64.6878 270.46 66.848C269.442 69.0082 268.321 70.7628 267.112 72.0899C265.896 73.4243 264.518 74.368 262.979 74.9209C261.434 75.4739 259.587 75.7541 257.44 75.7541H242.062V47.4581H249.916C251.403 47.4581 252.685 47.6277 253.763 47.9595C254.84 48.2912 255.763 48.8884 256.532 49.7509C257.301 50.6136 257.983 51.7858 258.561 53.2898C259.14 54.7865 259.704 56.6739 260.254 58.9446H261.001V34.8141H260.254C259.704 37.0923 259.14 38.9649 258.561 40.4321C257.983 41.8992 257.309 43.064 256.532 43.9267C255.763 44.7892 254.84 45.3864 253.763 45.7181C252.685 46.05 251.403 46.2195 249.916 46.2195H242.062V20.2533H256.034C258.019 20.2533 259.712 20.5188 261.118 21.0422C262.525 21.573 263.793 22.4577 264.921 23.7037C266.049 24.9497 267.097 26.5864 268.064 28.6139C269.031 30.6413 270.064 33.148 271.163 36.1412L271.911 36.0601L271.662 19H225.269V19.6635C227.364 19.7225 229.057 19.8552 230.354 20.0838C231.651 20.3049 232.64 20.6515 233.328 21.1233C234.017 21.5951 234.471 22.1776 234.691 22.8706C234.911 23.5636 235.021 24.4115 235.021 25.4141V70.5785C235.021 71.5812 234.911 72.4364 234.691 73.1589C234.471 73.8814 234.017 74.4638 233.328 74.9062C232.64 75.3485 231.643 75.6876 230.354 75.9089C229.057 76.1301 227.364 76.2701 225.269 76.3217V76.9852L225.276 77Z" fill="#343434"/>
</g>
<g clip-path="url(#clip4_327_19)">
<path d="M347.623 75.2756C346.408 75.0353 345.436 74.583 344.689 73.9187C343.943 73.2544 343.365 72.3216 342.956 71.1272C342.546 69.9329 342.173 68.4064 341.844 66.5406L341.346 63.1131C341.017 60.9859 340.578 59.0989 340.022 57.4523C339.474 55.8057 338.618 54.3923 337.462 53.2262C336.306 52.06 334.777 51.1272 332.883 50.4346C330.981 49.742 328.552 49.2402 325.575 48.9222V48.682C331.683 47.7774 336.101 46.1024 338.822 43.6572C341.544 41.212 342.912 38.1802 342.912 34.5619C342.912 30.4134 340.878 27.1201 336.803 24.6678C332.729 22.2226 326.869 21 319.218 21H295.187V21.636C297.279 21.6926 298.969 21.8269 300.264 22.0389C301.558 22.2509 302.546 22.583 303.234 23.0353C303.921 23.4876 304.375 24.0459 304.594 24.7103C304.814 25.3746 304.923 26.1873 304.923 27.1413V70.371C304.923 71.3251 304.814 72.152 304.594 72.8446C304.375 73.5371 303.921 74.0954 303.234 74.5194C302.546 74.9435 301.551 75.2615 300.264 75.4735C298.969 75.6855 297.279 75.8198 295.187 75.8763V76.5972H321.28V75.8763C319.188 75.8268 317.535 75.6926 316.328 75.4735C315.114 75.2615 314.185 74.9435 313.519 74.5194C312.86 74.0954 312.429 73.5513 312.239 72.8869C312.048 72.2226 311.953 71.4099 311.953 70.4558V49.3958H320.044C322.524 49.3958 324.558 49.53 326.152 49.7915C327.747 50.0601 329.042 50.5618 330.03 51.311C331.024 52.053 331.749 53.0636 332.217 54.3428C332.685 55.6219 333.058 57.2403 333.329 59.212L334.236 66.3923C334.455 68.2014 334.748 69.7703 335.106 71.0989C335.465 72.4276 335.984 73.5301 336.672 74.4063C337.359 75.2827 338.281 75.9328 339.437 76.364C340.593 76.7951 342.078 77 343.899 77C345.275 77 346.694 76.9434 348.15 76.8374C349.605 76.7314 351.024 76.5477 352.4 76.2792V75.6431C350.417 75.6431 348.822 75.5229 347.608 75.2827L347.623 75.2756ZM319.795 48.1943H311.953V22.1943H318.808C321.836 22.1943 324.382 22.4488 326.445 22.9505C328.508 23.4594 330.161 24.2297 331.397 25.2615C332.634 26.3004 333.534 27.6007 334.082 29.1696C334.631 30.7385 334.909 32.5619 334.909 34.6325C334.909 36.8657 334.704 38.8374 334.287 40.5336C333.877 42.2368 333.102 43.6431 331.975 44.7597C330.849 45.8763 329.305 46.7243 327.352 47.3109C325.399 47.8975 322.882 48.1873 319.795 48.1873V48.1943Z" fill="#343434"/>
</g>
<g clip-path="url(#clip5_327_19)">
<path d="M373.219 77H398.468V76.3592C396.47 76.3095 394.853 76.1742 393.619 75.9606C392.384 75.747 391.436 75.4266 390.768 74.9924C390.1 74.5652 389.649 74.0099 389.417 73.3407C389.186 72.6715 389.07 71.8243 389.07 70.8062V27.1937C389.07 26.2255 389.186 25.3997 389.417 24.702C389.649 24.0043 390.1 23.4419 390.768 23.0147C391.436 22.5876 392.384 22.2601 393.619 22.0465C394.853 21.833 396.47 21.6977 398.468 21.6407V21H373.219V21.6407C375.218 21.6977 376.834 21.8258 378.069 22.0465C379.303 22.2601 380.251 22.5805 380.92 23.0147C381.588 23.4419 382.038 24.0043 382.263 24.702C382.495 25.3997 382.611 26.2326 382.611 27.1937V70.8062C382.611 71.8243 382.495 72.6715 382.263 73.3407C382.031 74.0099 381.581 74.5581 380.92 74.9924C380.251 75.4195 379.303 75.747 378.069 75.9606C376.834 76.1742 375.218 76.3095 373.219 76.3592V77Z" fill="#343434"/>
</g>
<g clip-path="url(#clip6_327_19)">
<path d="M419.135 77H465.972L466.373 59.2559L465.656 59.1762C464.544 62.2844 463.496 64.9001 462.519 67.023C461.541 69.146 460.465 70.8703 459.304 72.1745C458.137 73.486 456.814 74.4134 455.337 74.9568C453.853 75.5002 452.081 75.7755 450.02 75.7755H435.256V47.9675H442.796C444.224 47.9675 445.455 48.1341 446.489 48.4602C447.523 48.7862 448.409 49.3731 449.148 50.2208C449.886 51.0685 450.54 52.2206 451.096 53.6986C451.652 55.1695 452.193 57.0243 452.721 59.2559H453.438V35.5415H452.721C452.193 37.7804 451.652 39.6207 451.096 41.0625C450.54 42.5044 449.893 43.6491 449.148 44.4969C448.409 45.3446 447.523 45.9315 446.489 46.2575C445.455 46.5836 444.224 46.7502 442.796 46.7502H435.256V21.2317H448.669C450.576 21.2317 452.2 21.4926 453.551 22.007C454.901 22.5287 456.118 23.3981 457.201 24.6226C458.284 25.8471 459.29 27.4556 460.219 29.4481C461.147 31.4405 462.139 33.9041 463.194 36.8457L463.911 36.7659L463.672 20H419.135V20.6521C421.147 20.7101 422.772 20.8405 424.017 21.0651C425.262 21.2824 426.211 21.623 426.872 22.0867C427.533 22.5504 427.969 23.1228 428.18 23.8039C428.391 24.4849 428.497 25.3182 428.497 26.3035V70.6892C428.497 71.6746 428.391 72.5151 428.18 73.2252C427.969 73.9352 427.533 74.5076 426.872 74.9423C426.211 75.377 425.254 75.7103 424.017 75.9277C422.772 76.1451 421.147 76.2827 419.135 76.3334V77Z" fill="#343434"/>
</g>
<g clip-path="url(#clip7_327_19)">
<path d="M487.315 77H487.963L492.351 72.9214C494.303 73.9555 496.55 74.8378 499.101 75.5754C501.651 76.313 504.223 76.6746 506.823 76.6746C509.964 76.6746 512.716 76.1611 515.079 75.127C517.435 74.093 519.387 72.7334 520.936 71.0485C522.477 69.3635 523.63 67.4616 524.394 65.3428C525.15 63.2239 525.532 61.1051 525.532 58.9862C525.532 56.5926 525.128 54.5606 524.314 52.8684C523.5 51.1834 522.362 49.7299 520.9 48.5078C519.437 47.2857 517.687 46.2515 515.655 45.4126C513.624 44.5738 511.391 43.7711 508.948 43.0046C506.398 42.1946 504.215 41.3992 502.4 40.6398C500.585 39.8806 499.079 39.0272 497.89 38.0726C496.695 37.1181 495.816 36.0045 495.247 34.7317C494.677 33.459 494.396 31.8897 494.396 30.0457C494.396 26.4589 495.477 23.6747 497.645 21.6933C499.814 19.7118 502.58 18.7139 505.937 18.7139C507.724 18.7139 509.381 19.0031 510.901 19.5744C512.413 20.1457 513.825 21.0858 515.129 22.3875C516.426 23.6964 517.665 25.3814 518.832 27.4496C519.999 29.5178 521.123 32.0199 522.204 34.9559H522.852V17H522.204L519.524 20.1023C518.004 19.4515 516.16 18.8513 513.998 18.3089C511.83 17.7665 509.474 17.4917 506.924 17.4917C504.374 17.4917 502.155 17.875 499.929 18.6343C497.703 19.3936 495.751 20.5001 494.072 21.9391C492.394 23.3782 491.047 25.121 490.045 27.1603C489.044 29.1996 488.54 31.4992 488.54 34.0592C488.54 36.4528 488.943 38.4704 489.757 40.0975C490.571 41.7318 491.709 43.1347 493.172 44.299C494.634 45.4706 496.399 46.4757 498.46 47.3218C500.52 48.1679 502.796 48.9706 505.289 49.7299C507.947 50.547 510.224 51.3931 512.118 52.261C514.013 53.1287 515.547 54.0833 516.714 55.1174C517.881 56.1515 518.731 57.3374 519.272 58.6681C519.812 59.9986 520.086 61.5679 520.086 63.3614C520.086 64.9957 519.826 66.5287 519.315 67.975C518.796 69.4214 518.025 70.6941 516.995 71.8078C515.965 72.9214 514.647 73.8109 513.055 74.4618C511.455 75.1126 509.568 75.438 507.4 75.438C504.957 75.438 502.789 75.0837 500.894 74.375C498.993 73.6662 497.278 72.567 495.729 71.0702C494.18 69.5732 492.804 67.6569 491.58 65.3138C490.362 62.9781 489.181 60.1722 488.043 56.9036H487.308V76.9855L487.315 77Z" fill="#343434"/>
</g>
<defs>
<clipPath id="clip0_327_19">
<rect width="56" height="57" fill="white" transform="translate(0 20)"/>
</clipPath>
<clipPath id="clip1_327_19">
<rect width="49" height="77" fill="white" transform="translate(76)"/>
</clipPath>
<clipPath id="clip2_327_19">
<rect width="60" height="59" fill="white" transform="translate(145 18)"/>
</clipPath>
<clipPath id="clip3_327_19">
<rect width="50" height="58" fill="white" transform="translate(225 19)"/>
</clipPath>
<clipPath id="clip4_327_19">
<rect width="58" height="56" fill="white" transform="translate(295 21)"/>
</clipPath>
<clipPath id="clip5_327_19">
<rect width="26" height="56" fill="white" transform="translate(373 21)"/>
</clipPath>
<clipPath id="clip6_327_19">
<rect width="48" height="57" fill="white" transform="translate(419 20)"/>
</clipPath>
<clipPath id="clip7_327_19">
<rect width="39" height="60" fill="white" transform="translate(487 17)"/>
</clipPath>
</defs>
</svg>
