<svg width="283" height="24" viewBox="0 0 283 24" fill="none" xmlns="http://www.w3.org/2000/svg">
<path d="M20.2588 12.3695H18.1788V18.2715H17.8668C17.6761 18.0809 17.5201 17.9509 17.3988 17.8815C17.2774 17.8122 17.0868 17.7775 16.8268 17.7775C16.5148 17.7775 16.1941 17.8642 15.8648 18.0375C15.5528 18.1935 15.1801 18.3755 14.7468 18.5835C14.3308 18.7915 13.8368 18.9735 13.2648 19.1295C12.6928 19.3029 11.9994 19.3895 11.1848 19.3895C9.9541 19.3895 8.8621 19.1902 7.90877 18.7915C6.95543 18.3755 6.03677 17.7255 5.15277 16.8415C4.2861 15.9749 3.56677 14.9522 2.99477 13.7735C2.42277 12.5949 2.13677 11.2689 2.13677 9.79553C2.13677 8.80753 2.24943 7.92353 2.47477 7.14353C2.7001 6.3462 2.96877 5.65286 3.28077 5.06353C3.6101 4.4742 3.93943 3.9802 4.26877 3.58153C4.61543 3.18286 4.90143 2.87086 5.12677 2.64553C5.90677 1.86553 6.79943 1.23286 7.80477 0.747531C8.8101 0.262198 9.9541 0.0195312 11.2368 0.0195312C11.8954 0.0195312 12.4328 0.0715311 12.8488 0.175531C13.2821 0.27953 13.6548 0.400864 13.9668 0.539531C14.2788 0.660865 14.5561 0.773531 14.7988 0.877531C15.0588 0.981531 15.3448 1.03353 15.6568 1.03353C16.0034 1.03353 16.2461 0.990197 16.3848 0.903531C16.5408 0.799531 16.6881 0.660865 16.8268 0.487531H17.2168V5.68753H16.9308C16.8614 5.23686 16.7228 4.7082 16.5148 4.10153C16.3241 3.49486 16.0121 2.9142 15.5788 2.35953C15.1628 1.80486 14.5994 1.33686 13.8888 0.955532C13.1954 0.574198 12.3028 0.383531 11.2108 0.383531C9.91077 0.383531 8.8621 0.660865 8.06477 1.21553C7.28477 1.75286 6.66943 2.4722 6.21877 3.37353C5.78543 4.25753 5.49077 5.26286 5.33477 6.38953C5.1961 7.5162 5.12677 8.65153 5.12677 9.79553C5.12677 10.5755 5.16143 11.3555 5.23077 12.1355C5.3001 12.9155 5.41277 13.6522 5.56877 14.3455C5.7421 15.0389 5.9761 15.6802 6.27077 16.2695C6.56543 16.8589 6.94677 17.3615 7.41477 17.7775C7.93477 18.2455 8.4721 18.5749 9.02677 18.7655C9.58143 18.9389 10.3008 19.0255 11.1848 19.0255C11.7221 19.0255 12.2594 18.9389 12.7968 18.7655C13.3341 18.5749 13.8108 18.2975 14.2268 17.9335C14.6601 17.5695 15.0068 17.1102 15.2668 16.5555C15.5441 15.9835 15.6828 15.3162 15.6828 14.5535V12.3695H12.3288V12.0055H20.2588V12.3695Z" fill="black"/>
<path d="M26.1061 9.71753C26.1061 11.2775 26.2101 12.6382 26.4181 13.7995C26.6261 14.9609 26.9728 15.9315 27.4581 16.7115C27.9435 17.4915 28.5675 18.0722 29.3301 18.4535C30.0928 18.8349 31.0375 19.0255 32.1641 19.0255C33.2735 19.0255 34.2095 18.8349 34.9721 18.4535C35.7521 18.0722 36.3848 17.4915 36.8701 16.7115C37.3555 15.9315 37.7021 14.9609 37.9101 13.7995C38.1181 12.6382 38.2221 11.2775 38.2221 9.71753C38.2221 8.52153 38.1441 7.36886 37.9881 6.25953C37.8321 5.13286 37.5288 4.1362 37.0781 3.26953C36.6448 2.38553 36.0295 1.68353 35.2321 1.16353C34.4521 0.643531 33.4295 0.383531 32.1641 0.383531C30.8988 0.383531 29.8675 0.643531 29.0701 1.16353C28.2901 1.68353 27.6748 2.38553 27.2241 3.26953C26.7908 4.1362 26.4961 5.13286 26.3401 6.25953C26.1841 7.36886 26.1061 8.52153 26.1061 9.71753ZM23.1161 9.71753C23.1161 8.33086 23.3848 7.0482 23.9221 5.86953C24.4768 4.69086 25.1788 3.6682 26.0281 2.80153C26.8948 1.93486 27.8655 1.25886 28.9401 0.773531C30.0148 0.270864 31.0895 0.0195312 32.1641 0.0195312C33.3081 0.0195312 34.4175 0.270864 35.4921 0.773531C36.5841 1.25886 37.5548 1.93486 38.4041 2.80153C39.2535 3.6682 39.9295 4.69086 40.4321 5.86953C40.9521 7.0482 41.2121 8.33086 41.2121 9.71753C41.2121 10.9309 40.9781 12.1182 40.5101 13.2795C40.0421 14.4409 39.4008 15.4722 38.5861 16.3735C37.7715 17.2749 36.8095 18.0029 35.7001 18.5575C34.6081 19.1122 33.4295 19.3895 32.1641 19.3895C30.8641 19.3895 29.6595 19.1209 28.5501 18.5835C27.4408 18.0462 26.4788 17.3355 25.6641 16.4515C24.8668 15.5502 24.2428 14.5189 23.7921 13.3575C23.3415 12.1789 23.1161 10.9655 23.1161 9.71753Z" fill="black"/>
<path d="M53.6273 18.6355H56.5133V0.851531H55.0053C54.6587 0.851531 54.2687 0.886198 53.8353 0.955532C53.402 1.00753 52.96 1.1722 52.5093 1.44953C52.076 1.72686 51.6513 2.16886 51.2353 2.77553C50.8367 3.36486 50.49 4.1882 50.1953 5.24553H49.9093V0.487531H65.7173V5.24553H65.4313C65.1367 4.1882 64.7813 3.36486 64.3653 2.77553C63.9667 2.16886 63.542 1.72686 63.0913 1.44953C62.658 1.1722 62.2247 1.00753 61.7913 0.955532C61.358 0.886198 60.968 0.851531 60.6213 0.851531H59.1133V18.6355H61.9993V18.9995H53.6273V18.6355Z" fill="black"/>
<path d="M71.7189 9.71753C71.7189 11.2775 71.8229 12.6382 72.0309 13.7995C72.2389 14.9609 72.5855 15.9315 73.0709 16.7115C73.5562 17.4915 74.1802 18.0722 74.9429 18.4535C75.7055 18.8349 76.6502 19.0255 77.7769 19.0255C78.8862 19.0255 79.8222 18.8349 80.5849 18.4535C81.3649 18.0722 81.9975 17.4915 82.4829 16.7115C82.9682 15.9315 83.3149 14.9609 83.5229 13.7995C83.7309 12.6382 83.8349 11.2775 83.8349 9.71753C83.8349 8.52153 83.7569 7.36886 83.6009 6.25953C83.4449 5.13286 83.1415 4.1362 82.6909 3.26953C82.2575 2.38553 81.6422 1.68353 80.8449 1.16353C80.0649 0.643531 79.0422 0.383531 77.7769 0.383531C76.5115 0.383531 75.4802 0.643531 74.6829 1.16353C73.9029 1.68353 73.2875 2.38553 72.8369 3.26953C72.4035 4.1362 72.1089 5.13286 71.9529 6.25953C71.7969 7.36886 71.7189 8.52153 71.7189 9.71753ZM68.7289 9.71753C68.7289 8.33086 68.9975 7.0482 69.5349 5.86953C70.0895 4.69086 70.7915 3.6682 71.6409 2.80153C72.5075 1.93486 73.4782 1.25886 74.5529 0.773531C75.6275 0.270864 76.7022 0.0195312 77.7769 0.0195312C78.9209 0.0195312 80.0302 0.270864 81.1049 0.773531C82.1969 1.25886 83.1675 1.93486 84.0169 2.80153C84.8662 3.6682 85.5422 4.69086 86.0449 5.86953C86.5649 7.0482 86.8249 8.33086 86.8249 9.71753C86.8249 10.9309 86.5909 12.1182 86.1229 13.2795C85.6549 14.4409 85.0135 15.4722 84.1989 16.3735C83.3842 17.2749 82.4222 18.0029 81.3129 18.5575C80.2209 19.1122 79.0422 19.3895 77.7769 19.3895C76.4769 19.3895 75.2722 19.1209 74.1629 18.5835C73.0535 18.0462 72.0915 17.3355 71.2769 16.4515C70.4795 15.5502 69.8555 14.5189 69.4049 13.3575C68.9542 12.1789 68.7289 10.9655 68.7289 9.71753Z" fill="black"/>
<path d="M114.316 18.9995H113.926C113.805 18.8609 113.666 18.7395 113.51 18.6355C113.354 18.5142 113.111 18.4535 112.782 18.4535C112.522 18.4535 112.236 18.5055 111.924 18.6095C111.629 18.6962 111.283 18.8002 110.884 18.9215C110.503 19.0429 110.069 19.1469 109.584 19.2335C109.099 19.3375 108.561 19.3895 107.972 19.3895C106.88 19.3895 105.814 19.1902 104.774 18.7915C103.751 18.3929 102.781 17.7429 101.862 16.8415C101.013 15.9922 100.302 14.9869 99.73 13.8255C99.158 12.6642 98.872 11.3209 98.872 9.79553C98.872 8.49553 99.106 7.2562 99.574 6.07753C100.042 4.89886 100.692 3.85886 101.524 2.95753C102.356 2.0562 103.335 1.34553 104.462 0.82553C105.589 0.288198 106.819 0.0195312 108.154 0.0195312C108.691 0.0195312 109.168 0.0715311 109.584 0.175531C110 0.27953 110.373 0.400864 110.702 0.539531C111.031 0.660865 111.335 0.773531 111.612 0.877531C111.889 0.981531 112.158 1.03353 112.418 1.03353C112.765 1.03353 113.007 0.981531 113.146 0.877531C113.302 0.756197 113.441 0.626197 113.562 0.487531H113.952V5.68753H113.666C113.51 5.02886 113.311 4.37886 113.068 3.73753C112.825 3.0962 112.487 2.53286 112.054 2.04753C111.621 1.54486 111.066 1.1462 110.39 0.851531C109.731 0.539531 108.908 0.383531 107.92 0.383531C107.001 0.383531 106.213 0.530864 105.554 0.82553C104.895 1.10286 104.341 1.4842 103.89 1.96953C103.439 2.43753 103.075 2.9922 102.798 3.63353C102.538 4.25753 102.339 4.92487 102.2 5.63553C102.061 6.32886 101.966 7.03953 101.914 7.76753C101.879 8.4782 101.862 9.1542 101.862 9.79553C101.862 11.6155 102.009 13.1235 102.304 14.3195C102.599 15.5155 103.006 16.4602 103.526 17.1535C104.063 17.8469 104.705 18.3322 105.45 18.6095C106.195 18.8869 107.019 19.0255 107.92 19.0255C109.081 19.0255 110.017 18.8609 110.728 18.5315C111.439 18.2022 112.011 17.7775 112.444 17.2575C112.877 16.7202 113.207 16.1222 113.432 15.4635C113.657 14.7875 113.857 14.1202 114.03 13.4615H114.316V18.9995Z" fill="black"/>
<path d="M120.912 9.71753C120.912 11.2775 121.016 12.6382 121.224 13.7995C121.432 14.9609 121.778 15.9315 122.264 16.7115C122.749 17.4915 123.373 18.0722 124.136 18.4535C124.898 18.8349 125.843 19.0255 126.97 19.0255C128.079 19.0255 129.015 18.8349 129.778 18.4535C130.558 18.0722 131.19 17.4915 131.676 16.7115C132.161 15.9315 132.508 14.9609 132.716 13.7995C132.924 12.6382 133.028 11.2775 133.028 9.71753C133.028 8.52153 132.95 7.36886 132.794 6.25953C132.638 5.13286 132.334 4.1362 131.884 3.26953C131.45 2.38553 130.835 1.68353 130.038 1.16353C129.258 0.643531 128.235 0.383531 126.97 0.383531C125.704 0.383531 124.673 0.643531 123.876 1.16353C123.096 1.68353 122.48 2.38553 122.03 3.26953C121.596 4.1362 121.302 5.13286 121.146 6.25953C120.99 7.36886 120.912 8.52153 120.912 9.71753ZM117.922 9.71753C117.922 8.33086 118.19 7.0482 118.728 5.86953C119.282 4.69086 119.984 3.6682 120.834 2.80153C121.7 1.93486 122.671 1.25886 123.746 0.773531C124.82 0.270864 125.895 0.0195312 126.97 0.0195312C128.114 0.0195312 129.223 0.270864 130.298 0.773531C131.39 1.25886 132.36 1.93486 133.21 2.80153C134.059 3.6682 134.735 4.69086 135.238 5.86953C135.758 7.0482 136.018 8.33086 136.018 9.71753C136.018 10.9309 135.784 12.1182 135.316 13.2795C134.848 14.4409 134.206 15.4722 133.392 16.3735C132.577 17.2749 131.615 18.0029 130.506 18.5575C129.414 19.1122 128.235 19.3895 126.97 19.3895C125.67 19.3895 124.465 19.1209 123.356 18.5835C122.246 18.0462 121.284 17.3355 120.47 16.4515C119.672 15.5502 119.048 14.5189 118.598 13.3575C118.147 12.1789 117.922 10.9655 117.922 9.71753Z" fill="black"/>
<path d="M139.086 18.6355H141.972V0.851531H139.086V0.487531H147.458V0.851531H144.572V18.6355H149.2C150.726 18.6355 151.922 18.1589 152.788 17.2055C153.655 16.2522 154.288 14.9522 154.686 13.3055H154.972V18.9995H139.086V18.6355Z" fill="black"/>
<path d="M157.405 18.6355H160.291V0.851531H157.405V0.487531H165.777V0.851531H162.891V18.6355H167.519C169.045 18.6355 170.241 18.1589 171.107 17.2055C171.974 16.2522 172.607 14.9522 173.005 13.3055H173.291V18.9995H157.405V18.6355Z" fill="black"/>
<path d="M175.724 18.6355H178.61V0.851531H175.724V0.487531H190.596V4.98553H190.31C190.085 4.30953 189.842 3.7202 189.582 3.21753C189.322 2.69753 189.01 2.2642 188.646 1.91753C188.282 1.55353 187.849 1.28486 187.346 1.11153C186.843 0.938198 186.237 0.851531 185.526 0.851531H181.21V8.88553H182.9C183.472 8.88553 183.957 8.83353 184.356 8.72953C184.755 8.62553 185.093 8.43486 185.37 8.15753C185.665 7.86286 185.907 7.47286 186.098 6.98753C186.306 6.48486 186.505 5.84353 186.696 5.06353H186.982V13.1495H186.696C186.575 12.6469 186.445 12.1615 186.306 11.6935C186.185 11.2255 186.003 10.8095 185.76 10.4455C185.535 10.0815 185.223 9.79553 184.824 9.58753C184.443 9.3622 183.94 9.24953 183.316 9.24953H181.21V18.6355H186.124C187.077 18.6355 187.866 18.4362 188.49 18.0375C189.131 17.6215 189.651 17.1362 190.05 16.5815C190.449 16.0095 190.743 15.4202 190.934 14.8135C191.125 14.2069 191.246 13.7042 191.298 13.3055H191.584V18.9995H175.724V18.6355Z" fill="black"/>
<path d="M211.217 18.9995H210.827C210.705 18.8609 210.567 18.7395 210.411 18.6355C210.255 18.5142 210.012 18.4535 209.683 18.4535C209.423 18.4535 209.137 18.5055 208.825 18.6095C208.53 18.6962 208.183 18.8002 207.785 18.9215C207.403 19.0429 206.97 19.1469 206.485 19.2335C205.999 19.3375 205.462 19.3895 204.873 19.3895C203.781 19.3895 202.715 19.1902 201.675 18.7915C200.652 18.3929 199.681 17.7429 198.763 16.8415C197.913 15.9922 197.203 14.9869 196.631 13.8255C196.059 12.6642 195.773 11.3209 195.773 9.79553C195.773 8.49553 196.007 7.2562 196.475 6.07753C196.943 4.89886 197.593 3.85886 198.425 2.95753C199.257 2.0562 200.236 1.34553 201.363 0.82553C202.489 0.288198 203.72 0.0195312 205.055 0.0195312C205.592 0.0195312 206.069 0.0715311 206.485 0.175531C206.901 0.27953 207.273 0.400864 207.603 0.539531C207.932 0.660865 208.235 0.773531 208.513 0.877531C208.79 0.981531 209.059 1.03353 209.319 1.03353C209.665 1.03353 209.908 0.981531 210.047 0.877531C210.203 0.756197 210.341 0.626197 210.463 0.487531H210.853V5.68753H210.567C210.411 5.02886 210.211 4.37886 209.969 3.73753C209.726 3.0962 209.388 2.53286 208.955 2.04753C208.521 1.54486 207.967 1.1462 207.291 0.851531C206.632 0.539531 205.809 0.383531 204.821 0.383531C203.902 0.383531 203.113 0.530864 202.455 0.82553C201.796 1.10286 201.241 1.4842 200.791 1.96953C200.34 2.43753 199.976 2.9922 199.699 3.63353C199.439 4.25753 199.239 4.92487 199.101 5.63553C198.962 6.32886 198.867 7.03953 198.815 7.76753C198.78 8.4782 198.763 9.1542 198.763 9.79553C198.763 11.6155 198.91 13.1235 199.205 14.3195C199.499 15.5155 199.907 16.4602 200.427 17.1535C200.964 17.8469 201.605 18.3322 202.351 18.6095C203.096 18.8869 203.919 19.0255 204.821 19.0255C205.982 19.0255 206.918 18.8609 207.629 18.5315C208.339 18.2022 208.911 17.7775 209.345 17.2575C209.778 16.7202 210.107 16.1222 210.333 15.4635C210.558 14.7875 210.757 14.1202 210.931 13.4615H211.217V18.9995Z" fill="black"/>
<path d="M217.76 18.6355H220.646V0.851531H219.138C218.792 0.851531 218.402 0.886198 217.968 0.955532C217.535 1.00753 217.093 1.1722 216.642 1.44953C216.209 1.72686 215.784 2.16886 215.368 2.77553C214.97 3.36486 214.623 4.1882 214.328 5.24553H214.042V0.487531H229.85V5.24553H229.564C229.27 4.1882 228.914 3.36486 228.498 2.77553C228.1 2.16886 227.675 1.72686 227.224 1.44953C226.791 1.1722 226.358 1.00753 225.924 0.955532C225.491 0.886198 225.101 0.851531 224.754 0.851531H223.246V18.6355H226.132V18.9995H217.76V18.6355Z" fill="black"/>
<path d="M232.206 18.6355H235.092V0.851531H232.206V0.487531H240.578V0.851531H237.692V18.6355H240.578V18.9995H232.206V18.6355Z" fill="black"/>
<path d="M246.706 9.71753C246.706 11.2775 246.81 12.6382 247.018 13.7995C247.226 14.9609 247.573 15.9315 248.058 16.7115C248.543 17.4915 249.167 18.0722 249.93 18.4535C250.693 18.8349 251.637 19.0255 252.764 19.0255C253.873 19.0255 254.809 18.8349 255.572 18.4535C256.352 18.0722 256.985 17.4915 257.47 16.7115C257.955 15.9315 258.302 14.9609 258.51 13.7995C258.718 12.6382 258.822 11.2775 258.822 9.71753C258.822 8.52153 258.744 7.36886 258.588 6.25953C258.432 5.13286 258.129 4.1362 257.678 3.26953C257.245 2.38553 256.629 1.68353 255.832 1.16353C255.052 0.643531 254.029 0.383531 252.764 0.383531C251.499 0.383531 250.467 0.643531 249.67 1.16353C248.89 1.68353 248.275 2.38553 247.824 3.26953C247.391 4.1362 247.096 5.13286 246.94 6.25953C246.784 7.36886 246.706 8.52153 246.706 9.71753ZM243.716 9.71753C243.716 8.33086 243.985 7.0482 244.522 5.86953C245.077 4.69086 245.779 3.6682 246.628 2.80153C247.495 1.93486 248.465 1.25886 249.54 0.773531C250.615 0.270864 251.689 0.0195312 252.764 0.0195312C253.908 0.0195312 255.017 0.270864 256.092 0.773531C257.184 1.25886 258.155 1.93486 259.004 2.80153C259.853 3.6682 260.529 4.69086 261.032 5.86953C261.552 7.0482 261.812 8.33086 261.812 9.71753C261.812 10.9309 261.578 12.1182 261.11 13.2795C260.642 14.4409 260.001 15.4722 259.186 16.3735C258.371 17.2749 257.409 18.0029 256.3 18.5575C255.208 19.1122 254.029 19.3895 252.764 19.3895C251.464 19.3895 250.259 19.1209 249.15 18.5835C248.041 18.0462 247.079 17.3355 246.264 16.4515C245.467 15.5502 244.843 14.5189 244.392 13.3575C243.941 12.1789 243.716 10.9655 243.716 9.71753Z" fill="black"/>
<path d="M264.647 18.6355H267.533V0.851531H264.647V0.487531H270.211L278.999 14.6575H279.051V0.851531H276.165V0.487531H282.327V0.851531H279.441V19.3635H278.921L267.975 1.91753H267.923V18.6355H270.809V18.9995H264.647V18.6355Z" fill="black"/>
<path d="M0.134766 22.2495H282.873V23.5495H0.134766V22.2495Z" fill="black"/>
</svg>
